<svg xmlns="http://www.w3.org/2000/svg" xmlns:xlink="http://www.w3.org/1999/xlink" width="1080" zoomAndPan="magnify" viewBox="0 0 810 404.99999" height="540" preserveAspectRatio="xMidYMid meet" version="1.0"><defs><g/><clipPath id="762d1dc94c"><path d="M 7 56.730469 L 803 56.730469 L 803 348.390625 L 7 348.390625 Z M 7 56.730469 " clip-rule="nonzero"/></clipPath><clipPath id="8b15f8c816"><path d="M 99.101562 56.730469 L 762.746094 56.730469 C 774.460938 56.730469 785.570312 61.914062 793.09375 70.894531 C 800.613281 79.871094 803.773438 91.71875 801.722656 103.25 L 766.421875 301.75 C 761.632812 328.664062 738.234375 348.269531 710.898438 348.269531 L 47.25 348.269531 C 35.539062 348.269531 24.429688 343.082031 16.90625 334.105469 C 9.386719 325.128906 6.226562 313.28125 8.277344 301.75 L 43.578125 103.25 C 48.367188 76.335938 71.765625 56.730469 99.101562 56.730469 Z M 99.101562 56.730469 " clip-rule="nonzero"/></clipPath><clipPath id="5c98bcdefc"><rect x="0" width="697" y="0" height="235"/></clipPath><clipPath id="dd96d9be76"><path d="M 335.375 141.101562 L 386.375 141.101562 L 386.375 264.101562 L 335.375 264.101562 Z M 335.375 141.101562 " clip-rule="nonzero"/></clipPath><clipPath id="b43e983380"><path d="M 390 125.679688 L 393 125.679688 L 393 128 L 390 128 Z M 390 125.679688 " clip-rule="nonzero"/></clipPath><clipPath id="227a749ea4"><path d="M 330 271 L 333 271 L 333 273.429688 L 330 273.429688 Z M 330 271 " clip-rule="nonzero"/></clipPath><clipPath id="f257bd84c4"><path d="M 287.304688 194 L 290 194 L 290 197 L 287.304688 197 Z M 287.304688 194 " clip-rule="nonzero"/></clipPath><clipPath id="409b67f1a0"><path d="M 287.304688 203 L 289 203 L 289 205 L 287.304688 205 Z M 287.304688 203 " clip-rule="nonzero"/></clipPath></defs><g clip-path="url(#762d1dc94c)"><g clip-path="url(#8b15f8c816)"><path stroke-linecap="butt" transform="matrix(0.75, 0, 0, 0.75, 0.00001, 56.729689)" fill="none" stroke-linejoin="miter" d="M 132.135412 0.00103962 L 1016.994846 0.00103962 C 1032.614639 0.00103962 1047.42714 6.912498 1057.45839 18.886458 C 1067.484433 30.855208 1071.697974 46.652084 1068.963599 62.027085 L 1021.895888 326.69377 C 1015.510471 362.579189 984.312552 388.719815 947.864633 388.719815 L 62.999991 388.719815 C 47.385406 388.719815 32.572905 381.803148 22.541655 369.834397 C 12.515612 357.865647 8.302071 342.068771 11.036446 326.69377 L 58.104157 62.027085 C 64.489574 26.141666 95.687493 0.00103962 132.135412 0.00103962 Z M 132.135412 0.00103962 " stroke="#ffffff" stroke-width="44" stroke-opacity="1" stroke-miterlimit="4"/></g></g><g transform="matrix(1, 0, 0, 1, 55, 103)"><g clip-path="url(#5c98bcdefc)"><g fill="#ffffff" fill-opacity="1"><g transform="translate(1.36353, 179.935243)"><g><path d="M 126.828125 -119.59375 L 73.90625 -119.59375 L 70.875 -102.8125 L 118.90625 -102.8125 L 111.671875 -62.015625 L 63.640625 -62.015625 L 60.390625 -43.828125 L 115.171875 -43.828125 L 107.484375 0 L 0.234375 0 L 28.90625 -163.203125 L 134.515625 -163.203125 Z M 126.828125 -119.59375 "/></g></g></g><g fill="#ffffff" fill-opacity="1"><g transform="translate(100.677868, 179.935243)"><g><path d="M 39.859375 0 L 15.15625 -163.203125 L 72.96875 -163.203125 L 76.703125 -101.1875 C 77.015625 -97.457031 77.207031 -93.957031 77.28125 -90.6875 C 77.363281 -87.425781 77.40625 -84.007812 77.40625 -80.4375 C 77.40625 -78.414062 77.40625 -76.394531 77.40625 -74.375 C 77.40625 -72.351562 77.328125 -70.175781 77.171875 -67.84375 L 78.109375 -67.84375 C 80.128906 -74.0625 82.1875 -79.96875 84.28125 -85.5625 C 86.375 -91.15625 88.742188 -96.828125 91.390625 -102.578125 L 120.296875 -163.203125 L 176.953125 -163.203125 L 91.15625 0 Z M 39.859375 0 "/></g></g></g><g fill="#ffffff" fill-opacity="1"><g transform="translate(223.771778, 179.935243)"><g><path d="M 71.8125 3.265625 C 58.75 3.265625 47.398438 0.660156 37.765625 -4.546875 C 28.128906 -9.753906 20.707031 -17.132812 15.5 -26.6875 C 10.289062 -36.25 7.6875 -47.554688 7.6875 -60.609375 C 7.6875 -74.910156 9.628906 -88.429688 13.515625 -101.171875 C 17.398438 -113.921875 23.226562 -125.191406 31 -134.984375 C 38.78125 -144.773438 48.378906 -152.46875 59.796875 -158.0625 C 71.222656 -163.664062 84.394531 -166.46875 99.3125 -166.46875 C 112.53125 -166.46875 123.914062 -163.898438 133.46875 -158.765625 C 143.03125 -153.640625 150.414062 -146.296875 155.625 -136.734375 C 160.832031 -127.179688 163.4375 -115.875 163.4375 -102.8125 C 163.4375 -88.507812 161.492188 -74.945312 157.609375 -62.125 C 153.722656 -49.300781 147.890625 -37.992188 140.109375 -28.203125 C 132.335938 -18.410156 122.738281 -10.71875 111.3125 -5.125 C 99.894531 0.46875 86.726562 3.265625 71.8125 3.265625 Z M 78.796875 -42.203125 C 83.617188 -42.203125 87.851562 -43.945312 91.5 -47.4375 C 95.15625 -50.9375 98.226562 -55.484375 100.71875 -61.078125 C 103.207031 -66.671875 105.070312 -72.734375 106.3125 -79.265625 C 107.550781 -85.796875 108.171875 -92.171875 108.171875 -98.390625 C 108.171875 -104.910156 107.046875 -110.304688 104.796875 -114.578125 C 102.546875 -118.859375 98.390625 -121 92.328125 -121 C 87.503906 -121 83.265625 -119.25 79.609375 -115.75 C 75.960938 -112.257812 72.894531 -107.710938 70.40625 -102.109375 C 67.914062 -96.515625 66.050781 -90.453125 64.8125 -83.921875 C 63.570312 -77.398438 62.953125 -71.03125 62.953125 -64.8125 C 62.953125 -58.28125 64.078125 -52.878906 66.328125 -48.609375 C 68.578125 -44.335938 72.734375 -42.203125 78.796875 -42.203125 Z M 78.796875 -42.203125 "/></g></g></g><g fill="#ffffff" fill-opacity="1"><g transform="translate(360.154237, 179.935243)"><g><path d="M 0.234375 0 L 28.90625 -163.203125 L 81.59375 -163.203125 L 60.84375 -46.15625 L 114 -46.15625 L 105.84375 0 Z M 0.234375 0 "/></g></g></g><g fill="#ffffff" fill-opacity="1"><g transform="translate(431.725738, 179.935243)"><g><path d="M 39.859375 0 L 15.15625 -163.203125 L 72.96875 -163.203125 L 76.703125 -101.1875 C 77.015625 -97.457031 77.207031 -93.957031 77.28125 -90.6875 C 77.363281 -87.425781 77.40625 -84.007812 77.40625 -80.4375 C 77.40625 -78.414062 77.40625 -76.394531 77.40625 -74.375 C 77.40625 -72.351562 77.328125 -70.175781 77.171875 -67.84375 L 78.109375 -67.84375 C 80.128906 -74.0625 82.1875 -79.96875 84.28125 -85.5625 C 86.375 -91.15625 88.742188 -96.828125 91.390625 -102.578125 L 120.296875 -163.203125 L 176.953125 -163.203125 L 91.15625 0 Z M 39.859375 0 "/></g></g></g><g fill="#ffffff" fill-opacity="1"><g transform="translate(560.414866, 179.935243)"><g><path d="M 126.828125 -119.59375 L 73.90625 -119.59375 L 70.875 -102.8125 L 118.90625 -102.8125 L 111.671875 -62.015625 L 63.640625 -62.015625 L 60.390625 -43.828125 L 115.171875 -43.828125 L 107.484375 0 L 0.234375 0 L 28.90625 -163.203125 L 134.515625 -163.203125 Z M 126.828125 -119.59375 "/></g></g></g></g></g><g clip-path="url(#dd96d9be76)"><path fill="#ffffff" d="M 534.566406 190.800781 C 536.292969 205.027344 508.902344 218.027344 506.292969 231.371094 C 503.585938 245.195312 523.894531 267.574219 517.183594 279.613281 C 510.402344 291.78125 480.628906 286.292969 470.429688 295.785156 C 460.332031 305.1875 463.707031 335.320312 450.933594 341.25 C 438.605469 346.980469 417.824219 325.097656 403.585938 326.828125 C 389.351562 328.558594 374.417969 354.769531 361.078125 352.160156 C 347.25 349.453125 343.3125 319.390625 331.261719 312.675781 C 319.089844 305.894531 291.496094 318.351562 282 308.15625 C 272.597656 298.058594 286.96875 271.484375 281.035156 258.710938 C 275.320312 246.371094 245.609375 240.304688 243.882812 226.078125 C 242.15625 211.851562 269.550781 198.851562 272.164062 185.507812 C 274.863281 171.683594 254.554688 149.300781 261.269531 137.265625 C 268.054688 125.09375 297.824219 130.589844 308.019531 121.09375 C 318.117188 111.691406 314.742188 81.5625 327.515625 75.628906 C 339.851562 69.902344 360.625 91.78125 374.863281 90.054688 C 389.101562 88.324219 404.023438 62.113281 417.367188 64.722656 C 431.191406 67.429688 435.128906 97.488281 447.179688 104.207031 C 459.351562 110.988281 486.945312 98.527344 496.441406 108.726562 C 505.84375 118.820312 491.472656 145.398438 497.40625 158.171875 C 503.132812 170.5 532.839844 176.570312 534.566406 190.792969 " fill-opacity="1" fill-rule="nonzero"/></g><path fill="#c8eb4d" d="M 391.070312 137.589844 C 392.414062 137.589844 393.503906 136.5 393.503906 135.15625 C 393.503906 133.8125 392.414062 132.722656 391.070312 132.722656 C 389.726562 132.722656 388.636719 133.8125 388.636719 135.15625 C 388.636719 136.5 389.726562 137.589844 391.070312 137.589844 Z M 391.070312 137.589844 " fill-opacity="1" fill-rule="nonzero"/><path fill="#c8eb4d" d="M 331.128906 261.582031 C 329.921875 261.582031 328.941406 262.5625 328.941406 263.769531 C 328.941406 264.976562 329.921875 265.957031 331.128906 265.957031 C 332.339844 265.957031 333.320312 264.976562 333.320312 263.769531 C 333.320312 262.5625 332.339844 261.582031 331.128906 261.582031 Z M 331.128906 261.582031 " fill-opacity="1" fill-rule="nonzero"/><path fill="#c8eb4d" d="M 382.578125 136.65625 C 383.40625 136.65625 384.078125 135.984375 384.078125 135.15625 C 384.078125 134.328125 383.40625 133.65625 382.578125 133.65625 C 381.75 133.65625 381.078125 134.328125 381.078125 135.15625 C 381.078125 135.984375 381.75 136.65625 382.578125 136.65625 Z M 382.578125 136.65625 " fill-opacity="1" fill-rule="nonzero"/><path fill="#c8eb4d" d="M 339.625 262.273438 C 338.792969 262.273438 338.121094 262.945312 338.121094 263.773438 C 338.121094 264.597656 338.796875 265.273438 339.625 265.273438 C 340.449219 265.273438 341.125 264.597656 341.125 263.773438 C 341.125 262.945312 340.449219 262.273438 339.625 262.273438 Z M 339.625 262.273438 " fill-opacity="1" fill-rule="nonzero"/><path fill="#c8eb4d" d="M 374.082031 144.875 C 374.628906 144.875 375.066406 144.433594 375.066406 143.890625 C 375.066406 143.347656 374.628906 142.90625 374.082031 142.90625 C 373.539062 142.90625 373.097656 143.347656 373.097656 143.890625 C 373.097656 144.433594 373.539062 144.875 374.082031 144.875 Z M 374.082031 144.875 " fill-opacity="1" fill-rule="nonzero"/><g clip-path="url(#b43e983380)"><path fill="#c8eb4d" d="M 391.070312 127.644531 C 391.613281 127.644531 392.054688 127.203125 392.054688 126.660156 C 392.054688 126.117188 391.613281 125.675781 391.070312 125.675781 C 390.527344 125.675781 390.085938 126.117188 390.085938 126.660156 C 390.085938 127.203125 390.527344 127.644531 391.070312 127.644531 Z M 391.070312 127.644531 " fill-opacity="1" fill-rule="nonzero"/></g><path fill="#c8eb4d" d="M 365.347656 153.164062 C 365.777344 153.164062 366.125 152.816406 366.125 152.386719 C 366.125 151.957031 365.777344 151.605469 365.347656 151.605469 C 364.917969 151.605469 364.570312 151.957031 364.570312 152.386719 C 364.570312 152.816406 364.917969 153.164062 365.347656 153.164062 Z M 365.347656 153.164062 " fill-opacity="1" fill-rule="nonzero"/><path fill="#c8eb4d" d="M 434.023438 196.117188 C 434.453125 196.117188 434.800781 195.769531 434.800781 195.339844 C 434.800781 194.910156 434.453125 194.5625 434.023438 194.5625 C 433.59375 194.5625 433.246094 194.910156 433.246094 195.339844 C 433.246094 195.769531 433.59375 196.117188 434.023438 196.117188 Z M 434.023438 196.117188 " fill-opacity="1" fill-rule="nonzero"/><path fill="#c8eb4d" d="M 399.804688 144.667969 C 400.234375 144.667969 400.582031 144.320312 400.582031 143.890625 C 400.582031 143.460938 400.234375 143.113281 399.804688 143.113281 C 399.375 143.113281 399.027344 143.460938 399.027344 143.890625 C 399.027344 144.320312 399.375 144.667969 399.804688 144.667969 Z M 399.804688 144.667969 " fill-opacity="1" fill-rule="nonzero"/><path fill="#c8eb4d" d="M 399.804688 135.933594 C 400.234375 135.933594 400.582031 135.585938 400.582031 135.152344 C 400.582031 134.722656 400.234375 134.375 399.804688 134.375 C 399.375 134.375 399.027344 134.722656 399.027344 135.152344 C 399.027344 135.585938 399.375 135.933594 399.804688 135.933594 Z M 399.804688 135.933594 " fill-opacity="1" fill-rule="nonzero"/><path fill="#c8eb4d" d="M 434.023438 203.054688 C 433.59375 203.054688 433.246094 203.402344 433.246094 203.832031 C 433.246094 204.261719 433.59375 204.609375 434.023438 204.609375 C 434.453125 204.609375 434.800781 204.261719 434.800781 203.832031 C 434.800781 203.402344 434.453125 203.054688 434.023438 203.054688 Z M 434.023438 203.054688 " fill-opacity="1" fill-rule="nonzero"/><path fill="#c8eb4d" d="M 323.414062 263.773438 C 323.414062 263.988281 323.339844 264.171875 323.1875 264.320312 C 323.035156 264.472656 322.851562 264.550781 322.636719 264.550781 C 322.421875 264.550781 322.238281 264.472656 322.085938 264.320312 C 321.933594 264.171875 321.859375 263.988281 321.859375 263.773438 C 321.859375 263.558594 321.933594 263.375 322.085938 263.222656 C 322.238281 263.070312 322.421875 262.992188 322.636719 262.992188 C 322.851562 262.992188 323.035156 263.070312 323.1875 263.222656 C 323.339844 263.375 323.414062 263.558594 323.414062 263.773438 Z M 323.414062 263.773438 " fill-opacity="1" fill-rule="nonzero"/><g clip-path="url(#227a749ea4)"><path fill="#c8eb4d" d="M 330.265625 272.5 L 331.136719 271.628906 L 332.003906 272.5 L 331.136719 273.367188 Z M 330.265625 272.5 " fill-opacity="1" fill-rule="nonzero"/></g><g clip-path="url(#f257bd84c4)"><path fill="#c8eb4d" d="M 287.308594 195.335938 L 288.179688 194.46875 L 289.046875 195.335938 L 288.179688 196.207031 Z M 287.308594 195.335938 " fill-opacity="1" fill-rule="nonzero"/></g><g clip-path="url(#409b67f1a0)"><path fill="#c8eb4d" d="M 287.691406 203.347656 L 288.660156 203.347656 L 288.660156 204.316406 L 287.691406 204.316406 Z M 287.691406 203.347656 " fill-opacity="1" fill-rule="nonzero"/></g><path fill="#c8eb4d" d="M 364.863281 237.5625 L 365.832031 237.5625 L 365.832031 238.53125 L 364.863281 238.53125 Z M 364.863281 237.5625 " fill-opacity="1" fill-rule="nonzero"/><path fill="#c8eb4d" d="M 399.320312 126.175781 L 400.292969 126.175781 L 400.292969 127.148438 L 399.320312 127.148438 Z M 399.320312 126.175781 " fill-opacity="1" fill-rule="nonzero"/><path fill="#c8eb4d" d="M 405.132812 192.304688 C 404.863281 192.546875 405.046875 193.070312 404.539062 192.910156 C 403.621094 191.511719 402.285156 190.277344 400.535156 190.238281 C 400.644531 189.832031 401.296875 189.933594 401.738281 189.625 C 406.371094 186.433594 400.363281 180.007812 396.894531 184.539062 C 396.496094 185.0625 396.402344 185.789062 395.925781 186.117188 C 395.84375 184.242188 394.386719 182.402344 392.527344 181.988281 C 392.34375 181.296875 393.070312 181.507812 393.484375 181.136719 C 397.257812 177.769531 392.878906 172.222656 388.804688 174.996094 C 388.210938 175.394531 388.148438 175.824219 387.675781 176.167969 C 387.46875 175.121094 386.664062 174.351562 385.988281 173.589844 C 388.511719 170.839844 388.195312 167.386719 385.25 165.128906 C 388.332031 162.597656 388.25 159.375 385.359375 156.75 C 385.144531 156.550781 384.410156 156.488281 384.761719 156.03125 C 384.78125 156.007812 385.167969 155.96875 385.359375 155.789062 C 389.5625 151.886719 384.648438 145.800781 380.066406 148.785156 C 377.648438 150.363281 377.703125 153.734375 379.65625 155.679688 C 379.929688 155.953125 380.738281 156.054688 380.390625 156.507812 C 380.371094 156.53125 379.984375 156.574219 379.789062 156.75 C 379.210938 157.273438 378.402344 157.941406 378.203125 158.695312 L 377.847656 158.691406 C 374.761719 154.058594 367.816406 158.027344 370.304688 162.835938 C 370.722656 163.640625 371.550781 163.984375 371.652344 164.761719 C 370.515625 165.089844 369.554688 166.046875 369.222656 167.191406 C 368.167969 166.882812 367.753906 165.71875 366.421875 165.507812 C 361.417969 164.722656 359.378906 170.074219 362.917969 173.253906 C 361.691406 173.53125 361.125 174.582031 360.371094 175.4375 C 356.085938 170.699219 349.496094 176.769531 353.933594 181.394531 L 353.9375 181.746094 C 353.191406 181.695312 352.4375 183.28125 351.910156 183.1875 C 351.683594 183.148438 350.792969 182.003906 349.632812 181.808594 C 347.265625 181.40625 345.523438 182.015625 344.121094 183.941406 C 343.824219 184.351562 343.867188 185.292969 343.386719 185.148438 C 341.265625 180.195312 333.882812 183.105469 335.929688 188.234375 C 336.28125 189.117188 337.050781 189.464844 337.195312 190.238281 C 336.394531 190.207031 335.410156 191.710938 334.890625 191.710938 C 334.65625 191.710938 333.222656 190.53125 332.355469 190.351562 C 330.132812 189.890625 327.660156 190.785156 326.753906 192.914062 L 326.402344 192.910156 C 322.164062 187.480469 314.75 194.273438 319.957031 198.867188 C 320.207031 199.09375 320.660156 199.199219 320.691406 199.226562 C 320.832031 199.363281 319.457031 200.136719 319.144531 200.464844 C 318.394531 201.25 318.277344 202.261719 317.542969 202.863281 C 316.726562 198.554688 310.300781 199.207031 310.003906 203.460938 C 309.675781 208.121094 316.097656 209.476562 317.542969 205.046875 C 318.253906 204.871094 318.074219 205.71875 318.414062 206.234375 C 320.449219 209.332031 323.855469 209.359375 326.515625 206.988281 C 326.660156 207.90625 327.597656 208.265625 328.214844 208.808594 C 324.613281 212.199219 327.753906 218.132812 332.585938 216.570312 C 333.085938 216.410156 334.414062 215.472656 334.617188 215.507812 C 334.726562 215.527344 336.222656 216.949219 336.222656 217.058594 C 336.222656 217.234375 334.152344 219.152344 334.523438 220.09375 C 334.058594 219.878906 333.945312 219.171875 333.554688 218.761719 C 331.882812 217.019531 328.914062 217.582031 328.050781 219.804688 C 326.820312 222.976562 330.402344 225.742188 333.15625 223.699219 L 334.523438 222.035156 C 334.722656 223.40625 335.617188 224.988281 336.953125 225.433594 C 334.042969 227.902344 334.023438 231.796875 337.4375 233.800781 C 333.972656 235.878906 334.144531 241.1875 338.164062 242.421875 C 338.339844 243.09375 337.652344 242.917969 337.207031 243.277344 C 332.488281 247.085938 337.800781 253.398438 342.167969 250.183594 C 344.632812 248.367188 344.300781 245.101562 342.035156 243.277344 C 341.589844 242.917969 340.902344 243.09375 341.078125 242.421875 C 342.503906 242.074219 343.648438 240.925781 343.992188 239.507812 C 344.667969 239.332031 344.488281 240.019531 344.847656 240.464844 C 346.027344 241.925781 347.074219 242.351562 348.976562 242.1875 C 352.796875 241.851562 353.792969 236.660156 350.789062 234.53125 C 351.421875 234.101562 351.945312 233.613281 352.488281 233.082031 C 352.914062 232.664062 353.066406 231.910156 353.691406 231.984375 C 353.757812 232.613281 354.921875 233.320312 355.460938 233.496094 C 359.941406 234.960938 363.203125 229.003906 359.277344 226.398438 L 359.277344 226.039062 C 360.296875 225.355469 361.140625 224.507812 361.824219 223.496094 C 366.246094 228.613281 372.832031 221.871094 367.769531 217.425781 C 368.929688 217.125 369.667969 216.164062 370.316406 215.242188 C 372.253906 217.71875 375.90625 217.75 377.847656 215.242188 L 378.929688 213.300781 C 380.742188 218.917969 388.660156 215.421875 385.777344 210.214844 L 384.515625 208.933594 C 385.171875 208.8125 385.828125 208.371094 386.332031 207.957031 C 386.78125 207.59375 386.902344 207.023438 386.949219 206.992188 C 387.183594 206.824219 388.671875 208.066406 389.171875 208.273438 C 391.121094 209.070312 392.878906 208.664062 394.4375 207.324219 L 395.917969 205.046875 C 398.1875 211.316406 407 206.445312 402.921875 201.078125 C 402.570312 200.617188 401.882812 200.554688 401.984375 199.953125 C 403.195312 199.777344 403.851562 198.640625 404.535156 197.769531 C 405.035156 197.625 404.871094 198.175781 405.25 198.496094 C 407.460938 200.371094 411.019531 199.964844 412.222656 197.203125 C 414.167969 192.730469 408.898438 188.945312 405.128906 192.308594 Z M 326.1875 200.660156 C 325.984375 200.625 324.984375 199.5 324.582031 199.339844 C 325.066406 199.183594 326.191406 197.820312 326.410156 197.773438 C 326.734375 197.699219 327.75 199.101562 327.714844 199.308594 C 327.683594 199.496094 326.464844 200.710938 326.183594 200.660156 Z M 334.410156 209.410156 C 333.328125 209.1875 335.21875 207.40625 335.496094 207.714844 C 335.710938 207.957031 334.886719 209.511719 334.410156 209.410156 Z M 335.253906 200.074219 L 334.402344 199.222656 L 335.015625 198.609375 L 335.867188 199.460938 Z M 343.25 187.96875 C 343.21875 187.71875 343.722656 187.789062 343.746094 187.816406 C 343.855469 187.917969 344.285156 190.128906 345.199219 190.371094 C 345.320312 190.679688 344.050781 191.464844 343.867188 191.46875 C 343.328125 191.472656 342.617188 190.113281 341.808594 190.238281 L 343.246094 187.96875 Z M 343.628906 217.667969 L 343.015625 217.054688 L 343.988281 216.082031 L 344.605469 216.695312 Z M 343.417969 226.625 L 342.296875 225.550781 C 342.582031 225.421875 343.542969 224.476562 343.628906 224.472656 C 344.460938 224.464844 344.835938 226.5 343.417969 226.625 Z M 344.472656 236.835938 C 344.015625 237.257812 343.691406 235.839844 343.464844 235.539062 C 342.972656 234.882812 341.871094 234.25 341.808594 234.160156 C 341.613281 233.882812 343.300781 232.503906 343.414062 232.480469 C 343.828125 232.410156 345.320312 234.328125 345.925781 234.527344 C 345.132812 234.757812 344.636719 236.679688 344.472656 236.832031 Z M 351.515625 190.367188 C 351.890625 189.363281 353.238281 190.953125 352.96875 191.210938 C 352.824219 191.347656 351.34375 190.824219 351.515625 190.367188 Z M 353.546875 227.109375 C 353.011719 227.203125 351.652344 225.191406 352.613281 224.945312 C 353.003906 224.84375 354.347656 225.742188 354.414062 226.0625 C 354.472656 226.328125 353.753906 227.074219 353.546875 227.109375 Z M 359.765625 181.617188 C 359.679688 181.273438 360.464844 180.59375 360.730469 180.78125 C 360.804688 180.832031 361.632812 182.308594 361.460938 182.476562 C 361.074219 182.621094 359.824219 181.851562 359.765625 181.617188 Z M 361.828125 218.632812 C 361.324219 218.144531 359.765625 216.464844 361.132812 216.226562 C 361.460938 216.167969 362.488281 217.359375 362.917969 217.542969 Z M 368.882812 172.050781 C 369.765625 172.582031 370.832031 173.796875 369.5625 174.453125 L 367.777344 173.132812 Z M 370.320312 209.410156 C 370.082031 209.082031 369.148438 208.484375 369.230469 208.082031 C 369.382812 207.351562 370.871094 208.367188 370.925781 208.445312 C 371.132812 208.730469 370.527344 209.21875 370.324219 209.410156 Z M 377.703125 162.972656 C 377.894531 162.769531 377.871094 162.753906 378.203125 162.820312 C 378.320312 163.859375 379.269531 164.410156 379.902344 165.125 C 378.394531 167.195312 377.996094 165.617188 376.507812 164.632812 C 376.480469 164.523438 377.535156 163.152344 377.703125 162.972656 Z M 379.199219 173.617188 C 379.199219 173.964844 378.917969 174.242188 378.570312 174.242188 C 378.226562 174.242188 377.945312 173.964844 377.945312 173.617188 C 377.945312 173.269531 378.226562 172.992188 378.570312 172.992188 C 378.917969 172.992188 379.199219 173.269531 379.199219 173.617188 Z M 378.695312 211.355469 L 377.238281 208.445312 C 379.042969 207.046875 378.960938 208.328125 380.636719 208.933594 Z M 387.109375 200.640625 C 386.679688 200.535156 386.238281 199.679688 386.460938 199.464844 C 386.589844 199.339844 387.867188 199.894531 387.914062 199.953125 C 388.125 200.214844 387.675781 200.785156 387.109375 200.640625 Z M 387.3125 190 C 387.6875 189.917969 388.078125 190.507812 387.914062 190.722656 C 387.867188 190.785156 386.707031 191.289062 386.460938 191.210938 C 386.234375 191.007812 387.15625 190.035156 387.3125 190 Z M 389.460938 182.007812 C 389.335938 182.105469 387.617188 183.15625 387.503906 183.175781 C 387.207031 183.21875 386.542969 182.566406 386.496094 182.320312 C 386.386719 181.753906 387.667969 180.730469 387.675781 180.050781 C 387.960938 180.515625 389.484375 181.363281 389.609375 181.511719 C 389.707031 181.628906 389.667969 181.847656 389.460938 182.007812 Z M 395.921875 202.617188 L 394.230469 200.308594 L 394.230469 199.957031 C 394.785156 200.070312 395.617188 198.746094 395.804688 198.746094 C 395.910156 198.746094 397.078125 200.058594 397.621094 199.957031 C 397.929688 200.410156 395.699219 201.789062 395.921875 202.617188 Z M 397.152344 190.863281 C 396.785156 191.070312 395.886719 191.929688 395.804688 191.929688 C 395.691406 191.929688 394.230469 190.472656 394.230469 190.363281 C 394.230469 190.175781 396.378906 188.136719 395.925781 187.089844 L 397.132812 188.914062 C 397.597656 189.414062 398.109375 189.9375 398.835938 190 C 398.519531 190.464844 397.707031 190.554688 397.152344 190.863281 Z M 397.152344 190.863281 " fill-opacity="1" fill-rule="nonzero"/><path fill="#c8eb4d" d="M 313.902344 199.238281 C 316.054688 199.238281 317.804688 197.492188 317.804688 195.335938 C 317.804688 193.179688 316.058594 191.433594 313.902344 191.433594 C 311.742188 191.433594 309.996094 193.179688 309.996094 195.335938 C 309.996094 197.492188 311.742188 199.238281 313.902344 199.238281 Z M 313.902344 199.238281 " fill-opacity="1" fill-rule="nonzero"/><path fill="#c8eb4d" d="M 408.300781 200.261719 C 406.324219 200.261719 404.726562 201.859375 404.726562 203.832031 C 404.726562 205.804688 406.324219 207.402344 408.300781 207.402344 C 410.273438 207.402344 411.871094 205.804688 411.871094 203.832031 C 411.871094 201.859375 410.273438 200.261719 408.300781 200.261719 Z M 408.300781 200.261719 " fill-opacity="1" fill-rule="nonzero"/><path fill="#c8eb4d" d="M 420.285156 195.339844 C 420.285156 195.800781 420.195312 196.246094 420.019531 196.675781 C 419.839844 197.101562 419.589844 197.480469 419.261719 197.808594 C 418.933594 198.132812 418.554688 198.386719 418.128906 198.5625 C 417.699219 198.742188 417.253906 198.828125 416.792969 198.828125 C 416.328125 198.828125 415.882812 198.742188 415.457031 198.5625 C 415.027344 198.386719 414.652344 198.132812 414.324219 197.808594 C 413.996094 197.480469 413.746094 197.101562 413.566406 196.675781 C 413.390625 196.246094 413.300781 195.800781 413.300781 195.339844 C 413.300781 194.875 413.390625 194.429688 413.566406 194.003906 C 413.746094 193.574219 413.996094 193.199219 414.324219 192.871094 C 414.652344 192.542969 415.027344 192.289062 415.457031 192.113281 C 415.882812 191.9375 416.328125 191.847656 416.792969 191.847656 C 417.253906 191.847656 417.699219 191.9375 418.128906 192.113281 C 418.554688 192.289062 418.933594 192.542969 419.261719 192.871094 C 419.589844 193.199219 419.839844 193.574219 420.019531 194.003906 C 420.195312 194.429688 420.285156 194.875 420.285156 195.339844 Z M 420.285156 195.339844 " fill-opacity="1" fill-rule="nonzero"/><path fill="#c8eb4d" d="M 391.070312 147.097656 C 392.839844 147.097656 394.277344 145.664062 394.277344 143.890625 C 394.277344 142.121094 392.839844 140.683594 391.070312 140.683594 C 389.296875 140.683594 387.863281 142.121094 387.863281 143.890625 C 387.863281 145.664062 389.296875 147.097656 391.070312 147.097656 Z M 391.070312 147.097656 " fill-opacity="1" fill-rule="nonzero"/><path fill="#c8eb4d" d="M 382.578125 147.074219 C 384.332031 147.074219 385.757812 145.648438 385.757812 143.890625 C 385.757812 142.132812 384.332031 140.710938 382.578125 140.710938 C 380.820312 140.710938 379.394531 142.132812 379.394531 143.890625 C 379.394531 145.648438 380.820312 147.074219 382.578125 147.074219 Z M 382.578125 147.074219 " fill-opacity="1" fill-rule="nonzero"/><path fill="#c8eb4d" d="M 305.40625 192.152344 C 303.648438 192.152344 302.226562 193.578125 302.226562 195.335938 C 302.226562 197.09375 303.648438 198.519531 305.40625 198.519531 C 307.164062 198.519531 308.589844 197.09375 308.589844 195.335938 C 308.589844 193.578125 307.164062 192.152344 305.40625 192.152344 Z M 305.40625 192.152344 " fill-opacity="1" fill-rule="nonzero"/><path fill="#c8eb4d" d="M 348.359375 181.292969 C 350.117188 181.292969 351.542969 179.867188 351.542969 178.109375 C 351.542969 176.351562 350.117188 174.925781 348.359375 174.925781 C 346.601562 174.925781 345.175781 176.351562 345.175781 178.109375 C 345.175781 179.867188 346.601562 181.292969 348.359375 181.292969 Z M 348.359375 181.292969 " fill-opacity="1" fill-rule="nonzero"/><path fill="#c8eb4d" d="M 342.757812 255.277344 C 342.757812 255.695312 342.675781 256.09375 342.515625 256.476562 C 342.359375 256.859375 342.132812 257.199219 341.839844 257.492188 C 341.542969 257.789062 341.207031 258.015625 340.820312 258.171875 C 340.4375 258.332031 340.039062 258.410156 339.625 258.410156 C 339.207031 258.410156 338.808594 258.332031 338.425781 258.171875 C 338.039062 258.015625 337.703125 257.789062 337.410156 257.492188 C 337.113281 257.199219 336.886719 256.859375 336.730469 256.476562 C 336.570312 256.09375 336.492188 255.695312 336.492188 255.277344 C 336.492188 254.863281 336.570312 254.464844 336.730469 254.078125 C 336.886719 253.695312 337.113281 253.355469 337.410156 253.0625 C 337.703125 252.769531 338.039062 252.542969 338.425781 252.382812 C 338.808594 252.226562 339.207031 252.144531 339.625 252.144531 C 340.039062 252.144531 340.4375 252.226562 340.820312 252.382812 C 341.207031 252.542969 341.542969 252.769531 341.839844 253.0625 C 342.132812 253.355469 342.359375 253.695312 342.515625 254.078125 C 342.675781 254.464844 342.757812 254.863281 342.757812 255.277344 Z M 342.757812 255.277344 " fill-opacity="1" fill-rule="nonzero"/><path fill="#c8eb4d" d="M 322.636719 209.261719 C 320.945312 209.261719 319.574219 210.632812 319.574219 212.324219 C 319.574219 214.015625 320.945312 215.382812 322.636719 215.382812 C 324.328125 215.382812 325.699219 214.015625 325.699219 212.324219 C 325.699219 210.632812 324.328125 209.261719 322.636719 209.261719 Z M 322.636719 209.261719 " fill-opacity="1" fill-rule="nonzero"/><path fill="#c8eb4d" d="M 394.132812 152.382812 C 394.132812 152.789062 394.054688 153.179688 393.898438 153.554688 C 393.742188 153.929688 393.523438 154.261719 393.234375 154.546875 C 392.949219 154.835938 392.617188 155.054688 392.242188 155.210938 C 391.867188 155.367188 391.476562 155.445312 391.070312 155.445312 C 390.664062 155.445312 390.273438 155.367188 389.898438 155.210938 C 389.523438 155.054688 389.191406 154.835938 388.90625 154.546875 C 388.617188 154.261719 388.398438 153.929688 388.242188 153.554688 C 388.085938 153.179688 388.007812 152.789062 388.007812 152.382812 C 388.007812 151.976562 388.085938 151.585938 388.242188 151.210938 C 388.398438 150.835938 388.617188 150.503906 388.90625 150.21875 C 389.191406 149.933594 389.523438 149.710938 389.898438 149.554688 C 390.273438 149.398438 390.664062 149.320312 391.070312 149.320312 C 391.476562 149.320312 391.867188 149.398438 392.242188 149.554688 C 392.617188 149.710938 392.949219 149.933594 393.234375 150.21875 C 393.523438 150.503906 393.742188 150.835938 393.898438 151.210938 C 394.054688 151.585938 394.132812 151.976562 394.132812 152.382812 Z M 394.132812 152.382812 " fill-opacity="1" fill-rule="nonzero"/><path fill="#c8eb4d" d="M 391.070312 172.675781 C 392.761719 172.675781 394.132812 171.304688 394.132812 169.613281 C 394.132812 167.921875 392.761719 166.554688 391.070312 166.554688 C 389.378906 166.554688 388.007812 167.921875 388.007812 169.613281 C 388.007812 171.304688 389.378906 172.675781 391.070312 172.675781 Z M 391.070312 172.675781 " fill-opacity="1" fill-rule="nonzero"/><path fill="#c8eb4d" d="M 331.128906 189.664062 C 332.820312 189.664062 334.191406 188.292969 334.191406 186.601562 C 334.191406 184.910156 332.820312 183.539062 331.128906 183.539062 C 329.4375 183.539062 328.070312 184.910156 328.070312 186.601562 C 328.070312 188.292969 329.4375 189.664062 331.128906 189.664062 Z M 331.128906 189.664062 " fill-opacity="1" fill-rule="nonzero"/><path fill="#c8eb4d" d="M 305.40625 200.8125 C 303.738281 200.8125 302.386719 202.164062 302.386719 203.832031 C 302.386719 205.496094 303.738281 206.847656 305.40625 206.847656 C 307.070312 206.847656 308.425781 205.496094 308.425781 203.832031 C 308.425781 202.164062 307.070312 200.8125 305.40625 200.8125 Z M 305.40625 200.8125 " fill-opacity="1" fill-rule="nonzero"/><path fill="#c8eb4d" d="M 334.050781 255.277344 C 334.050781 255.664062 333.976562 256.035156 333.828125 256.394531 C 333.679688 256.753906 333.46875 257.070312 333.195312 257.34375 C 332.921875 257.617188 332.605469 257.828125 332.25 257.976562 C 331.890625 258.125 331.515625 258.199219 331.128906 258.199219 C 330.742188 258.199219 330.371094 258.125 330.011719 257.976562 C 329.652344 257.828125 329.335938 257.617188 329.0625 257.34375 C 328.789062 257.070312 328.578125 256.753906 328.429688 256.394531 C 328.28125 256.035156 328.207031 255.664062 328.207031 255.277344 C 328.207031 254.890625 328.28125 254.515625 328.429688 254.160156 C 328.578125 253.800781 328.789062 253.484375 329.0625 253.210938 C 329.335938 252.9375 329.652344 252.726562 330.011719 252.578125 C 330.371094 252.429688 330.742188 252.355469 331.128906 252.355469 C 331.515625 252.355469 331.890625 252.429688 332.25 252.578125 C 332.605469 252.726562 332.921875 252.9375 333.195312 253.210938 C 333.46875 253.484375 333.679688 253.800781 333.828125 254.160156 C 333.976562 254.515625 334.050781 254.890625 334.050781 255.277344 Z M 334.050781 255.277344 " fill-opacity="1" fill-rule="nonzero"/><path fill="#c8eb4d" d="M 374.082031 218.164062 C 372.484375 218.164062 371.1875 219.460938 371.1875 221.0625 C 371.1875 222.660156 372.484375 223.957031 374.082031 223.957031 C 375.683594 223.957031 376.980469 222.660156 376.980469 221.0625 C 376.980469 219.460938 375.683594 218.164062 374.082031 218.164062 Z M 374.082031 218.164062 " fill-opacity="1" fill-rule="nonzero"/><path fill="#c8eb4d" d="M 416.792969 200.933594 C 415.191406 200.933594 413.894531 202.230469 413.894531 203.832031 C 413.894531 205.433594 415.191406 206.730469 416.792969 206.730469 C 418.394531 206.730469 419.691406 205.433594 419.691406 203.832031 C 419.691406 202.230469 418.394531 200.933594 416.792969 200.933594 Z M 416.792969 200.933594 " fill-opacity="1" fill-rule="nonzero"/><path fill="#c8eb4d" d="M 393.96875 160.878906 C 393.96875 161.261719 393.894531 161.632812 393.746094 161.988281 C 393.597656 162.34375 393.390625 162.65625 393.117188 162.925781 C 392.847656 163.199219 392.535156 163.40625 392.179688 163.554688 C 391.824219 163.703125 391.453125 163.777344 391.070312 163.777344 C 390.6875 163.777344 390.316406 163.703125 389.960938 163.554688 C 389.605469 163.40625 389.292969 163.199219 389.019531 162.925781 C 388.75 162.65625 388.539062 162.34375 388.394531 161.988281 C 388.246094 161.632812 388.171875 161.261719 388.171875 160.878906 C 388.171875 160.496094 388.246094 160.125 388.394531 159.769531 C 388.539062 159.414062 388.75 159.101562 389.019531 158.828125 C 389.292969 158.558594 389.605469 158.347656 389.960938 158.203125 C 390.316406 158.054688 390.6875 157.980469 391.070312 157.980469 C 391.453125 157.980469 391.824219 158.054688 392.179688 158.203125 C 392.535156 158.347656 392.847656 158.558594 393.117188 158.828125 C 393.390625 159.101562 393.597656 159.414062 393.746094 159.769531 C 393.894531 160.125 393.96875 160.496094 393.96875 160.878906 Z M 393.96875 160.878906 " fill-opacity="1" fill-rule="nonzero"/><path fill="#c8eb4d" d="M 391.070312 209.582031 C 389.554688 209.582031 388.328125 210.8125 388.328125 212.324219 C 388.328125 213.839844 389.554688 215.070312 391.070312 215.070312 C 392.585938 215.070312 393.8125 213.839844 393.8125 212.324219 C 393.8125 210.8125 392.585938 209.582031 391.070312 209.582031 Z M 391.070312 209.582031 " fill-opacity="1" fill-rule="nonzero"/><path fill="#c8eb4d" d="M 376.828125 152.386719 C 376.828125 152.75 376.757812 153.097656 376.617188 153.433594 C 376.480469 153.769531 376.28125 154.066406 376.023438 154.324219 C 375.765625 154.582031 375.46875 154.78125 375.132812 154.921875 C 374.796875 155.058594 374.445312 155.128906 374.082031 155.128906 C 373.71875 155.128906 373.371094 155.058594 373.035156 154.921875 C 372.699219 154.78125 372.402344 154.582031 372.144531 154.324219 C 371.886719 154.066406 371.6875 153.769531 371.546875 153.433594 C 371.410156 153.097656 371.339844 152.75 371.339844 152.386719 C 371.339844 152.019531 371.410156 151.671875 371.546875 151.335938 C 371.6875 151 371.886719 150.703125 372.144531 150.445312 C 372.402344 150.1875 372.699219 149.988281 373.035156 149.851562 C 373.371094 149.710938 373.71875 149.640625 374.082031 149.640625 C 374.445312 149.640625 374.796875 149.710938 375.132812 149.851562 C 375.46875 149.988281 375.765625 150.1875 376.023438 150.445312 C 376.28125 150.703125 376.480469 151 376.617188 151.335938 C 376.757812 151.671875 376.828125 152.019531 376.828125 152.386719 Z M 376.828125 152.386719 " fill-opacity="1" fill-rule="nonzero"/><path fill="#c8eb4d" d="M 331.128906 249.527344 C 332.644531 249.527344 333.875 248.300781 333.875 246.785156 C 333.875 245.269531 332.644531 244.042969 331.128906 244.042969 C 329.617188 244.042969 328.386719 245.269531 328.386719 246.785156 C 328.386719 248.300781 329.617188 249.527344 331.128906 249.527344 Z M 331.128906 249.527344 " fill-opacity="1" fill-rule="nonzero"/><path fill="#c8eb4d" d="M 351.015625 246.785156 C 351.015625 247.136719 350.945312 247.472656 350.8125 247.800781 C 350.675781 248.125 350.484375 248.410156 350.234375 248.660156 C 349.988281 248.910156 349.699219 249.101562 349.375 249.234375 C 349.050781 249.371094 348.710938 249.4375 348.359375 249.4375 C 348.007812 249.4375 347.667969 249.371094 347.34375 249.234375 C 347.019531 249.101562 346.730469 248.910156 346.480469 248.660156 C 346.234375 248.410156 346.042969 248.125 345.90625 247.800781 C 345.773438 247.472656 345.703125 247.136719 345.703125 246.785156 C 345.703125 246.429688 345.773438 246.09375 345.90625 245.769531 C 346.042969 245.441406 346.234375 245.15625 346.480469 244.90625 C 346.730469 244.65625 347.019531 244.464844 347.34375 244.332031 C 347.667969 244.195312 348.007812 244.128906 348.359375 244.128906 C 348.710938 244.128906 349.050781 244.195312 349.375 244.332031 C 349.699219 244.464844 349.988281 244.65625 350.234375 244.90625 C 350.484375 245.15625 350.675781 245.441406 350.8125 245.769531 C 350.945312 246.09375 351.015625 246.429688 351.015625 246.785156 Z M 351.015625 246.785156 " fill-opacity="1" fill-rule="nonzero"/><path fill="#c8eb4d" d="M 331.128906 232.054688 C 332.511719 232.054688 333.628906 230.933594 333.628906 229.554688 C 333.628906 228.175781 332.511719 227.058594 331.128906 227.058594 C 329.75 227.058594 328.632812 228.175781 328.632812 229.554688 C 328.632812 230.933594 329.75 232.054688 331.128906 232.054688 Z M 331.128906 232.054688 " fill-opacity="1" fill-rule="nonzero"/><path fill="#c8eb4d" d="M 356.851562 172.113281 C 358.234375 172.113281 359.351562 170.996094 359.351562 169.617188 C 359.351562 168.238281 358.234375 167.117188 356.851562 167.117188 C 355.472656 167.117188 354.355469 168.238281 354.355469 169.617188 C 354.355469 170.996094 355.472656 172.113281 356.851562 172.113281 Z M 356.851562 172.113281 " fill-opacity="1" fill-rule="nonzero"/><path fill="#c8eb4d" d="M 331.128906 240.546875 C 332.511719 240.546875 333.628906 239.429688 333.628906 238.050781 C 333.628906 236.671875 332.511719 235.550781 331.128906 235.550781 C 329.75 235.550781 328.632812 236.667969 328.632812 238.050781 C 328.632812 239.429688 329.75 240.546875 331.128906 240.546875 Z M 331.128906 240.546875 " fill-opacity="1" fill-rule="nonzero"/><path fill="#c8eb4d" d="M 367.78125 229.554688 C 367.78125 229.878906 367.722656 230.1875 367.597656 230.484375 C 367.472656 230.785156 367.296875 231.046875 367.070312 231.277344 C 366.839844 231.503906 366.578125 231.679688 366.28125 231.804688 C 365.980469 231.925781 365.671875 231.988281 365.347656 231.988281 C 365.023438 231.988281 364.714844 231.925781 364.414062 231.804688 C 364.117188 231.679688 363.855469 231.503906 363.625 231.277344 C 363.398438 231.046875 363.222656 230.785156 363.097656 230.484375 C 362.972656 230.1875 362.914062 229.878906 362.914062 229.554688 C 362.914062 229.230469 362.972656 228.921875 363.097656 228.621094 C 363.222656 228.324219 363.398438 228.0625 363.625 227.832031 C 363.855469 227.605469 364.117188 227.429688 364.414062 227.304688 C 364.714844 227.179688 365.023438 227.121094 365.347656 227.121094 C 365.671875 227.121094 365.980469 227.179688 366.28125 227.304688 C 366.578125 227.429688 366.839844 227.605469 367.070312 227.832031 C 367.296875 228.0625 367.472656 228.324219 367.597656 228.621094 C 367.722656 228.921875 367.78125 229.230469 367.78125 229.554688 Z M 367.78125 229.554688 " fill-opacity="1" fill-rule="nonzero"/><path fill="#c8eb4d" d="M 367.78125 160.878906 C 367.78125 161.203125 367.722656 161.511719 367.597656 161.808594 C 367.472656 162.109375 367.296875 162.371094 367.070312 162.601562 C 366.839844 162.828125 366.578125 163.003906 366.28125 163.128906 C 365.980469 163.25 365.671875 163.3125 365.347656 163.3125 C 365.023438 163.3125 364.714844 163.25 364.414062 163.128906 C 364.117188 163.003906 363.855469 162.828125 363.625 162.601562 C 363.398438 162.371094 363.222656 162.109375 363.097656 161.808594 C 362.972656 161.511719 362.914062 161.203125 362.914062 160.878906 C 362.914062 160.554688 362.972656 160.246094 363.097656 159.945312 C 363.222656 159.648438 363.398438 159.386719 363.625 159.15625 C 363.855469 158.929688 364.117188 158.753906 364.414062 158.628906 C 364.714844 158.503906 365.023438 158.445312 365.347656 158.445312 C 365.671875 158.445312 365.980469 158.503906 366.28125 158.628906 C 366.578125 158.753906 366.839844 158.929688 367.070312 159.15625 C 367.296875 159.386719 367.472656 159.648438 367.597656 159.945312 C 367.722656 160.246094 367.78125 160.554688 367.78125 160.878906 Z M 367.78125 160.878906 " fill-opacity="1" fill-rule="nonzero"/><path fill="#c8eb4d" d="M 356.851562 235.648438 C 355.527344 235.648438 354.453125 236.722656 354.453125 238.046875 C 354.453125 239.375 355.527344 240.445312 356.851562 240.445312 C 358.179688 240.445312 359.25 239.375 359.25 238.046875 C 359.25 236.722656 358.179688 235.648438 356.851562 235.648438 Z M 356.851562 235.648438 " fill-opacity="1" fill-rule="nonzero"/><path fill="#c8eb4d" d="M 427.785156 195.339844 C 427.785156 195.636719 427.726562 195.925781 427.613281 196.199219 C 427.496094 196.476562 427.335938 196.71875 427.125 196.933594 C 426.910156 197.144531 426.667969 197.304688 426.390625 197.421875 C 426.117188 197.535156 425.828125 197.589844 425.53125 197.589844 C 425.230469 197.589844 424.945312 197.535156 424.667969 197.421875 C 424.390625 197.304688 424.148438 197.144531 423.9375 196.933594 C 423.726562 196.71875 423.5625 196.476562 423.449219 196.199219 C 423.335938 195.925781 423.277344 195.636719 423.277344 195.339844 C 423.277344 195.039062 423.335938 194.753906 423.449219 194.476562 C 423.5625 194.199219 423.726562 193.957031 423.9375 193.746094 C 424.148438 193.535156 424.390625 193.371094 424.667969 193.257812 C 424.945312 193.144531 425.230469 193.085938 425.53125 193.085938 C 425.828125 193.085938 426.117188 193.144531 426.390625 193.257812 C 426.667969 193.371094 426.910156 193.535156 427.125 193.746094 C 427.335938 193.957031 427.496094 194.199219 427.613281 194.476562 C 427.726562 194.753906 427.785156 195.039062 427.785156 195.339844 Z M 427.785156 195.339844 " fill-opacity="1" fill-rule="nonzero"/><path fill="#c8eb4d" d="M 408.300781 188.792969 C 409.507812 188.792969 410.488281 187.808594 410.488281 186.601562 C 410.488281 185.394531 409.507812 184.414062 408.300781 184.414062 C 407.089844 184.414062 406.109375 185.394531 406.109375 186.601562 C 406.109375 187.808594 407.089844 188.792969 408.300781 188.792969 Z M 408.300781 188.792969 " fill-opacity="1" fill-rule="nonzero"/><path fill="#c8eb4d" d="M 322.636719 188.691406 C 323.789062 188.691406 324.726562 187.757812 324.726562 186.601562 C 324.726562 185.449219 323.789062 184.515625 322.636719 184.515625 C 321.484375 184.515625 320.546875 185.449219 320.546875 186.601562 C 320.546875 187.757812 321.484375 188.691406 322.636719 188.691406 Z M 322.636719 188.691406 " fill-opacity="1" fill-rule="nonzero"/><path fill="#c8eb4d" d="M 296.914062 193.285156 C 295.78125 193.285156 294.859375 194.203125 294.859375 195.335938 C 294.859375 196.46875 295.78125 197.386719 296.914062 197.386719 C 298.046875 197.386719 298.964844 196.46875 298.964844 195.335938 C 298.964844 194.203125 298.046875 193.285156 296.914062 193.285156 Z M 296.914062 193.285156 " fill-opacity="1" fill-rule="nonzero"/><path fill="#c8eb4d" d="M 425.53125 201.855469 C 424.441406 201.855469 423.554688 202.742188 423.554688 203.832031 C 423.554688 204.921875 424.441406 205.808594 425.53125 205.808594 C 426.621094 205.808594 427.503906 204.921875 427.503906 203.832031 C 427.503906 202.742188 426.621094 201.855469 425.53125 201.855469 Z M 425.53125 201.855469 " fill-opacity="1" fill-rule="nonzero"/><path fill="#c8eb4d" d="M 296.914062 201.957031 C 295.875 201.957031 295.039062 202.796875 295.039062 203.832031 C 295.039062 204.863281 295.878906 205.703125 296.914062 205.703125 C 297.945312 205.703125 298.789062 204.863281 298.789062 203.832031 C 298.789062 202.796875 297.945312 201.957031 296.914062 201.957031 Z M 296.914062 201.957031 " fill-opacity="1" fill-rule="nonzero"/><path fill="#c8eb4d" d="M 399.804688 210.617188 C 398.863281 210.617188 398.097656 211.382812 398.097656 212.324219 C 398.097656 213.269531 398.863281 214.035156 399.804688 214.035156 C 400.75 214.035156 401.515625 213.269531 401.515625 212.324219 C 401.515625 211.382812 400.75 210.617188 399.804688 210.617188 Z M 399.804688 210.617188 " fill-opacity="1" fill-rule="nonzero"/><path fill="#c8eb4d" d="M 339.625 179.773438 C 340.542969 179.773438 341.289062 179.027344 341.289062 178.109375 C 341.289062 177.1875 340.542969 176.441406 339.625 176.441406 C 338.703125 176.441406 337.957031 177.1875 337.957031 178.109375 C 337.957031 179.027344 338.703125 179.773438 339.625 179.773438 Z M 339.625 179.773438 " fill-opacity="1" fill-rule="nonzero"/><path fill="#c8eb4d" d="M 399.804688 179.609375 C 400.636719 179.609375 401.304688 178.933594 401.304688 178.109375 C 401.304688 177.28125 400.632812 176.605469 399.804688 176.605469 C 398.976562 176.605469 398.304688 177.28125 398.304688 178.109375 C 398.304688 178.933594 398.976562 179.609375 399.804688 179.609375 Z M 399.804688 179.609375 " fill-opacity="1" fill-rule="nonzero"/><path fill="#c8eb4d" d="M 313.902344 210.824219 C 313.070312 210.824219 312.402344 211.496094 312.402344 212.324219 C 312.402344 213.152344 313.074219 213.824219 313.902344 213.824219 C 314.730469 213.824219 315.402344 213.152344 315.402344 212.324219 C 315.402344 211.496094 314.730469 210.824219 313.902344 210.824219 Z M 313.902344 210.824219 " fill-opacity="1" fill-rule="nonzero"/><path fill="#c8eb4d" d="M 382.578125 219.714844 C 381.835938 219.714844 381.234375 220.316406 381.234375 221.058594 C 381.234375 221.800781 381.835938 222.402344 382.578125 222.402344 C 383.320312 222.402344 383.921875 221.800781 383.921875 221.058594 C 383.921875 220.316406 383.320312 219.714844 382.578125 219.714844 Z M 382.578125 219.714844 " fill-opacity="1" fill-rule="nonzero"/><path fill="#c8eb4d" d="M 315.140625 186.601562 C 315.140625 186.765625 315.109375 186.921875 315.046875 187.074219 C 314.984375 187.226562 314.894531 187.359375 314.777344 187.476562 C 314.660156 187.59375 314.527344 187.683594 314.375 187.746094 C 314.226562 187.808594 314.066406 187.839844 313.902344 187.839844 C 313.738281 187.839844 313.582031 187.808594 313.429688 187.746094 C 313.277344 187.683594 313.144531 187.59375 313.027344 187.476562 C 312.910156 187.359375 312.820312 187.226562 312.757812 187.074219 C 312.695312 186.921875 312.664062 186.765625 312.664062 186.601562 C 312.664062 186.4375 312.695312 186.277344 312.757812 186.128906 C 312.820312 185.976562 312.910156 185.839844 313.027344 185.726562 C 313.144531 185.609375 313.277344 185.519531 313.429688 185.457031 C 313.582031 185.394531 313.738281 185.363281 313.902344 185.363281 C 314.066406 185.363281 314.226562 185.394531 314.375 185.457031 C 314.527344 185.519531 314.660156 185.609375 314.777344 185.726562 C 314.894531 185.839844 314.984375 185.976562 315.046875 186.128906 C 315.109375 186.277344 315.140625 186.4375 315.140625 186.601562 Z M 315.140625 186.601562 " fill-opacity="1" fill-rule="nonzero"/><path fill="#c8eb4d" d="M 416.792969 187.585938 C 417.335938 187.585938 417.777344 187.144531 417.777344 186.601562 C 417.777344 186.058594 417.335938 185.617188 416.792969 185.617188 C 416.25 185.617188 415.808594 186.058594 415.808594 186.601562 C 415.808594 187.144531 416.25 187.585938 416.792969 187.585938 Z M 416.792969 187.585938 " fill-opacity="1" fill-rule="nonzero"/><path fill="#c8eb4d" d="M 348.359375 254.292969 C 347.816406 254.292969 347.375 254.734375 347.375 255.277344 C 347.375 255.824219 347.816406 256.261719 348.359375 256.261719 C 348.902344 256.261719 349.34375 255.820312 349.34375 255.277344 C 349.34375 254.734375 348.902344 254.292969 348.359375 254.292969 Z M 348.359375 254.292969 " fill-opacity="1" fill-rule="nonzero"/><path fill="#c8eb4d" d="M 322.636719 220.078125 C 322.09375 220.078125 321.652344 220.519531 321.652344 221.0625 C 321.652344 221.605469 322.09375 222.046875 322.636719 222.046875 C 323.179688 222.046875 323.621094 221.605469 323.621094 221.0625 C 323.621094 220.519531 323.179688 220.078125 322.636719 220.078125 Z M 322.636719 220.078125 " fill-opacity="1" fill-rule="nonzero"/><path fill="#c8eb4d" d="M 348.359375 170.390625 C 348.789062 170.390625 349.136719 170.042969 349.136719 169.613281 C 349.136719 169.183594 348.789062 168.835938 348.359375 168.835938 C 347.929688 168.835938 347.582031 169.183594 347.582031 169.613281 C 347.582031 170.042969 347.929688 170.390625 348.359375 170.390625 Z M 348.359375 170.390625 " fill-opacity="1" fill-rule="nonzero"/><path fill="#c8eb4d" d="M 374.082031 228.777344 C 373.652344 228.777344 373.304688 229.125 373.304688 229.554688 C 373.304688 229.984375 373.652344 230.332031 374.082031 230.332031 C 374.511719 230.332031 374.859375 229.984375 374.859375 229.554688 C 374.859375 229.125 374.511719 228.777344 374.082031 228.777344 Z M 374.082031 228.777344 " fill-opacity="1" fill-rule="nonzero"/><path fill="#c8eb4d" d="M 408.300781 211.546875 C 407.871094 211.546875 407.519531 211.894531 407.519531 212.324219 C 407.519531 212.753906 407.871094 213.101562 408.300781 213.101562 C 408.730469 213.101562 409.078125 212.753906 409.078125 212.324219 C 409.078125 211.894531 408.730469 211.546875 408.300781 211.546875 Z M 408.300781 211.546875 " fill-opacity="1" fill-rule="nonzero"/><path fill="#c8eb4d" d="M 355.984375 246.785156 L 356.851562 245.914062 L 357.722656 246.785156 L 356.851562 247.652344 Z M 355.984375 246.785156 " fill-opacity="1" fill-rule="nonzero"/><path fill="#c8eb4d" d="M 304.535156 186.605469 L 305.40625 185.734375 L 306.273438 186.605469 L 305.40625 187.472656 Z M 304.535156 186.605469 " fill-opacity="1" fill-rule="nonzero"/><path fill="#c8eb4d" d="M 355.984375 160.875 L 356.851562 160.007812 L 357.722656 160.875 L 356.851562 161.746094 Z M 355.984375 160.875 " fill-opacity="1" fill-rule="nonzero"/><path fill="#c8eb4d" d="M 304.921875 211.839844 L 305.894531 211.839844 L 305.894531 212.808594 L 304.921875 212.808594 Z M 304.921875 211.839844 " fill-opacity="1" fill-rule="nonzero"/><path fill="#c8eb4d" d="M 330.644531 177.621094 L 331.617188 177.621094 L 331.617188 178.59375 L 330.644531 178.59375 Z M 330.644531 177.621094 " fill-opacity="1" fill-rule="nonzero"/><path fill="#c8eb4d" d="M 322.152344 254.792969 L 323.121094 254.792969 L 323.121094 255.765625 L 322.152344 255.765625 Z M 322.152344 254.792969 " fill-opacity="1" fill-rule="nonzero"/></svg>